<svg xmlns="http://www.w3.org/2000/svg" width="128" height="128" viewBox="0 0 128 128">
    <rect width="128" height="128" fill="none"/> <!-- Прозрачный фон -->
    <path d="M24 16h40a4 4 0 0 1 4 4v88a2 2 0 0 1-3.2 1.6L44 92 27.2 109.6A2 2 0 0 1 24 108V20a4 4 0 0 1 4-4z" fill="white"/>
    <path d="M48 8h40a4 4 0 0 1 4 4v88a2 2 0 0 1-3.2 1.6L68 84 51.2 101.6A2 2 0 0 1 48 100V12a4 4 0 0 1 4-4z" fill="#4285f4"/>
    <path d="M72 32h40a4 4 0 0 1 4 4v88a2 2 0 0 1-3.2 1.6L92 108 75.2 125.6A2 2 0 0 1 72 124V36a4 4 0 0 1 4-4z" fill="#EA4335"/>
</svg>
